<?xml version="1.0" encoding="UTF-8"?>
<svg id="Layer_1" data-name="Layer 1" xmlns="http://www.w3.org/2000/svg" viewBox="0 0 1366 768">
  <defs>
    <style>
      .cls-1 {
        fill: #697282;
        stroke-width: 0px;
      }
    </style>
  </defs>
  <path class="cls-1" d="m818.18,654.68c0,18.66-15.15,33.81-33.81,33.81h-244.27c-18.69,0-33.84-15.15-33.84-33.81v-28.48l-40.44,1.72v37.07c0,33.49,27.18,60.64,60.67,60.64h271.49c33.49,0,60.64-27.15,60.64-60.64v-90.94c-13.19,2.95-28.27,6.21-40.44,8.84v71.79Z"/>
  <path class="cls-1" d="m1289.78,272.51c-10.52-67.79-146.63-107.18-338.72-108.65v53.59c95.32,4.73,158.49,24.06,163.68,55.06,7.19,43.03-99.5,96.24-256.12,137.09-13.12,3.4-26.62,6.77-40.44,10-39.56,9.29-81.72,17.75-125.52,25.08-66.04,11.05-129.27,18.06-186.4,21.22-13.85.81-27.36,1.33-40.44,1.68-130.39,3.26-221.12-15.4-227.44-53.03-5.02-30.06,44.82-66.18,128.43-99.53v-60.71c-183.04,59.66-301.12,138.5-290.6,206.39,11.4,73.65,170.97,113.7,389.61,108.19,13.26-.32,26.76-.81,40.44-1.51,64.5-3.16,133.38-10.14,204.61-21.18,36.79-5.72,72.63-12.27,107.32-19.53,13.68-2.88,27.15-5.86,40.44-8.94,260.23-60.43,444.21-161.22,431.17-245.22Z"/>
  <path class="cls-1" d="m506.26,113.32c0-18.66,15.15-33.81,33.84-33.81h244.27c18.66,0,33.81,15.15,33.81,33.81v243.6c15.75-4,30.13-7.75,40.44-10.49V103.01c0-33.49-27.15-60.64-60.64-60.64h-271.49c-33.49,0-60.67,27.15-60.67,60.64v307.01l40.44-3.51V113.32Z"/>
</svg>